<?xml version="1.0" encoding="UTF-8" standalone="no"?>
<!-- Created with Inkscape (http://www.inkscape.org/) -->

<svg
   width="1024"
   height="1024"
   viewBox="0 0 1024 1024"
   version="1.1"
   id="svg1"
   xml:space="preserve"
   xmlns="http://www.w3.org/2000/svg"
   xmlns:svg="http://www.w3.org/2000/svg"><defs
     id="defs1" /><g
     id="layer4"
     style="display:inline"><path
       class="st0"
       d="m 128.98799,55.987989 h 224.76585 c 144.86276,0 252.46924,16.451938 322.8877,49.287541 70.41845,32.83559 128.41813,86.28729 173.99907,160.28684 45.58093,73.99956 68.3714,160.35511 68.3714,259.13495 0,70.24497 -12.75995,134.8239 -38.2798,193.73683 -25.51986,58.91295 -60.72907,107.79088 -105.62767,146.63381 -44.8986,38.84294 -93.48187,65.73947 -145.88629,80.6213 -52.33617,14.88183 -143.08863,22.32275 -272.12089,22.32275 H 128.98799 Z M 317.65756,223.51096 v 574.99836 h 88.22777 c 86.86307,0 149.84391,-9.07929 188.94252,-27.3061 39.09861,-18.15857 71.10081,-48.80966 96.00656,-91.81679 24.90573,-43.00711 37.32448,-95.91271 37.32448,-158.78502 0,-96.80014 -29.61394,-171.82368 -88.9101,-225.20713 C 585.88907,247.47207 500.186,223.51096 382.07133,223.51096 Z"
       id="path1"
       style="display:inline;opacity:1;stroke:#000000;stroke-width:10;stroke-dasharray:none;stroke-opacity:1" /><g
       id="layer15"
       style="display:inline"><g
         id="layer17"><path
           style="fill:none;fill-opacity:1;stroke:#000000;stroke-width:10;stroke-linecap:round;stroke-linejoin:round;stroke-dasharray:none;stroke-opacity:1"
           d="m 231.40069,416.875 v 26.48095 h 57.98276 V 416.875"
           id="path84" /><rect
           style="fill:none;fill-opacity:1;stroke:#000000;stroke-width:10;stroke-linecap:round;stroke-linejoin:round;stroke-dasharray:none;stroke-opacity:1"
           id="rect84"
           width="38.75"
           height="39.5"
           x="241.25"
           y="462.75" /><path
           id="path85"
           style="fill:none;stroke:#000000;stroke-width:10;stroke-linecap:round;stroke-linejoin:round"
           d="m 241.25,498.40976 c -2.67233,3.0224 -6.84735,4.08046 -10.62307,2.65911 -3.77572,-1.42135 -6.2814,-5.02679 -6.29724,-9.06115 -0.0158,-4.03436 2.46144,-7.65936 6.22588,-9.11032 3.76444,-1.45097 7.99844,-0.47061 10.69443,2.53072" /><path
           id="path86"
           style="fill:none;stroke:#000000;stroke-width:10;stroke-linecap:round;stroke-linejoin:round"
           d="m 280,485.74018 c 2.78764,-2.86933 7.04213,-3.70848 10.75546,-2.22012 3.71333,1.48836 6.16009,5.07199 6.19425,9.07235 0.0342,4.00036 -2.35106,7.62525 -6.03843,9.1768 -3.68737,1.55155 -8.07505,0.66001 -10.91128,-2.16131" /><path
           id="path87"
           style="fill:none;stroke:#000000;stroke-width:10;stroke-linecap:round;stroke-linejoin:round"
           d="m 224.32969,492.00772 -66.29862,114.89601 c -2.26562,4.97581 -0.0686,10.84616 4.90724,13.11178 4.97582,2.26561 10.84616,0.0686 13.11178,-4.90724 L 241.25,502.25" /><path
           id="circle87"
           style="fill:none;stroke:#000000;stroke-width:10;stroke-linecap:round;stroke-linejoin:round"
           d="m 250.75776,502.25 v 131.22925 c 0,5.46734 4.43216,9.89949 9.8995,9.89949 5.46734,0 9.89949,-4.43215 9.89949,-9.89949 1.32581,-2.0329 0,-131.22925 0,-131.22925" /><path
           style="fill:none;fill-opacity:1;stroke:#000000;stroke-width:10;stroke-linecap:round;stroke-linejoin:round;stroke-dasharray:none;stroke-opacity:1"
           d="m 280,502.25 37.65756,63.5"
           id="path88" /><path
           style="fill:none;fill-opacity:1;stroke:#000000;stroke-width:10;stroke-linecap:round;stroke-linejoin:round;stroke-dasharray:none;stroke-opacity:1"
           d="M 296.94971,492.59241 317.65756,526.75"
           id="path89" /><path
           style="fill:none;fill-opacity:1;stroke:#000000;stroke-width:10;stroke-linecap:round;stroke-linejoin:round;stroke-dasharray:none;stroke-opacity:1"
           d="M 251.02291,443.35595 V 462.75"
           id="path90" /><path
           style="fill:none;fill-opacity:1;stroke:#000000;stroke-width:10;stroke-linecap:round;stroke-linejoin:round;stroke-dasharray:none;stroke-opacity:1"
           d="M 270.8219,443.35595 V 462.75"
           id="path91" /><path
           style="fill:none;fill-opacity:1;stroke:#000000;stroke-width:10;stroke-linecap:round;stroke-linejoin:round;stroke-dasharray:none;stroke-opacity:1"
           d="m 289.38345,430.11547 19.79899,12.53337 c -2.65165,8.83883 2.81827,13.43503 8.47512,15.37957"
           id="path92" /><path
           style="fill:none;fill-opacity:1;stroke:#000000;stroke-width:10;stroke-linecap:round;stroke-linejoin:round;stroke-dasharray:none;stroke-opacity:1"
           d="m 309.18244,442.64884 c 3.71231,-6.71751 8.47512,-3.88908 8.47512,-3.88908"
           id="path93" /></g><g
         id="layer16"><path
           style="fill:none;fill-opacity:1;stroke:#000000;stroke-width:10;stroke-linecap:round;stroke-linejoin:round;stroke-dasharray:none;stroke-opacity:1"
           d="m 199.40411,416.875 v -70.39268 c -14.5,-4 -24.65411,-4 -37.40411,0"
           id="path77" /><path
           style="fill:none;fill-opacity:1;stroke:#000000;stroke-width:10;stroke-linecap:round;stroke-linejoin:round;stroke-dasharray:none;stroke-opacity:1"
           d="m 299.94634,376.63714 h 17.71122"
           id="path83" /><path
           style="fill:none;fill-opacity:1;stroke:#000000;stroke-width:10;stroke-linecap:round;stroke-linejoin:round;stroke-dasharray:none;stroke-opacity:1"
           d="m 299.75209,362.29558 h 17.90547"
           id="path82" /><circle
           style="fill:none;fill-opacity:1;stroke:#000000;stroke-width:10;stroke-linecap:round;stroke-linejoin:round;stroke-dasharray:none;stroke-opacity:1"
           id="path81"
           cx="260.92239"
           cy="369.99362"
           r="22.04899" /><circle
           style="fill:none;fill-opacity:1;stroke:#000000;stroke-width:10;stroke-linecap:round;stroke-linejoin:round;stroke-dasharray:none;stroke-opacity:1"
           id="circle81"
           cx="260.92239"
           cy="369.99362"
           r="39.585415" /><circle
           style="fill:#000000;fill-opacity:1;stroke:none;stroke-width:10;stroke-linecap:round;stroke-linejoin:round;stroke-dasharray:none;stroke-opacity:1"
           id="path80"
           cx="208.25"
           cy="332.25"
           r="8.3125" /><path
           style="fill:none;fill-opacity:1;stroke:#000000;stroke-width:10;stroke-linecap:round;stroke-linejoin:round;stroke-dasharray:none;stroke-opacity:1"
           d="m 191.875,322.75 v -6.5 H 217 v 6.5"
           id="path78" /><path
           style="fill:none;fill-opacity:1;stroke:#000000;stroke-width:10;stroke-linecap:round;stroke-linejoin:round;stroke-dasharray:none;stroke-opacity:1"
           d="m 230.09203,312.1414 60.05512,-0.16046"
           id="path79" /><path
           style="fill:none;fill-opacity:1;stroke:#000000;stroke-width:10;stroke-linecap:round;stroke-linejoin:round;stroke-dasharray:none;stroke-opacity:1"
           d="M 317.65756,416.875 H 169.86324 A 7.863236,7.863236 45 0 1 162,409.01176 v -68.26912 c 0.375,-6.375 5.0625,-11.80514 12.1875,-12.68014 5.34362,-0.76175 6.22061,-2.4457 11.59651,-5.1875 L 222.25,322.75 c 6.21991,-5.70747 7.84203,-10.6086 12.71015,-21.50191 7.17483,-5.09965 41.78931,-4.81693 48.63084,0 6.15485,10.16918 8.30914,15.03715 14.98485,22.25326 l 19.08172,5.65686"
           id="path76" /></g></g><g
       id="layer14"><rect
         style="fill:none;fill-opacity:1;stroke:#000000;stroke-width:10;stroke-linecap:round;stroke-linejoin:round;stroke-dasharray:none;stroke-opacity:1"
         id="rect76"
         width="1.1875"
         height="1.25"
         x="381.44391"
         y="905.14331" /><path
         style="fill:none;fill-opacity:1;stroke:#000000;stroke-width:10;stroke-linecap:round;stroke-linejoin:round;stroke-dasharray:none;stroke-opacity:1"
         d="m 271.125,916 h 21.5"
         id="path75" /><path
         style="fill:none;fill-opacity:1;stroke:#000000;stroke-width:10;stroke-linecap:round;stroke-linejoin:round;stroke-dasharray:none;stroke-opacity:1"
         d="M 234.69251,931.93752 V 900.44243 H 329.375 v 31.49509"
         id="path74" /><rect
         style="fill:none;fill-opacity:1;stroke:#000000;stroke-width:10;stroke-linecap:round;stroke-linejoin:round;stroke-dasharray:none;stroke-opacity:1"
         id="rect75"
         width="1.1875"
         height="1.25"
         x="181.29512"
         y="905.14331" /><rect
         style="fill:none;fill-opacity:1;stroke:#000000;stroke-width:10;stroke-linecap:round;stroke-linejoin:round;stroke-dasharray:none;stroke-opacity:1"
         id="rect62"
         width="247.12056"
         height="52.644608"
         x="158.44194"
         y="879.29291"
         ry="0" /><path
         style="fill:none;fill-opacity:1;stroke:#000000;stroke-width:10;stroke-linecap:round;stroke-linejoin:round;stroke-dasharray:none;stroke-opacity:1"
         d="M 387.31774,879.29291 V 798.50932"
         id="path66" /><path
         style="fill:none;fill-opacity:1;stroke:#000000;stroke-width:10;stroke-linecap:round;stroke-linejoin:round;stroke-dasharray:none;stroke-opacity:1"
         d="M 363.80644,879.29291 V 798.50932"
         id="path67" /><path
         style="fill:none;fill-opacity:1;stroke:#000000;stroke-width:10;stroke-linecap:round;stroke-linejoin:round;stroke-dasharray:none;stroke-opacity:1"
         d="M 200.25,879.29291 V 774.21967"
         id="path73" /><path
         style="fill:none;fill-opacity:1;stroke:#000000;stroke-width:10;stroke-linecap:round;stroke-linejoin:round;stroke-dasharray:none;stroke-opacity:1"
         d="M 176.625,737.17395 V 879.29291"
         id="path65" /><path
         style="fill:none;fill-opacity:1;stroke:#000000;stroke-width:10;stroke-linecap:round;stroke-linejoin:round;stroke-dasharray:none;stroke-opacity:1"
         d="m 281.95883,802.91975 v 13.36426"
         id="path71" /><path
         style="fill:none;fill-opacity:1;stroke:#000000;stroke-width:10;stroke-linecap:round;stroke-linejoin:round;stroke-dasharray:none;stroke-opacity:1"
         d="m 263.52228,784.25 h 36.8731"
         id="path70" /><path
         style="fill:none;fill-opacity:1;stroke:#000000;stroke-width:10;stroke-linecap:round;stroke-linejoin:round;stroke-dasharray:none;stroke-opacity:1"
         d="m 263.52228,755.54359 v 47.37616 h 36.8731 v -47.37616"
         id="path69" /><path
         style="fill:none;fill-opacity:1;stroke:#000000;stroke-width:10;stroke-linecap:round;stroke-linejoin:round;stroke-dasharray:none;stroke-opacity:1"
         d="m 176.625,774.21967 h 68.65533"
         id="path72" /><path
         style="fill:none;fill-opacity:1;stroke:#000000;stroke-width:10;stroke-linecap:round;stroke-linejoin:round;stroke-dasharray:none;stroke-opacity:1"
         d="M 176.625,755.54359 H 317.65756"
         id="path68" /><rect
         style="fill:none;fill-opacity:1;stroke:#000000;stroke-width:10;stroke-linecap:round;stroke-linejoin:round;stroke-dasharray:none;stroke-opacity:1"
         id="rect64"
         width="47.729702"
         height="16.263485"
         x="258.09396"
         y="702.68738"
         ry="0" /><rect
         style="fill:none;fill-opacity:1;stroke:#000000;stroke-width:10;stroke-linecap:round;stroke-linejoin:round;stroke-dasharray:none;stroke-opacity:1"
         id="rect65"
         width="1.1875"
         height="1.25"
         x="239.125"
         y="710.1875" /><path
         style="fill:none;fill-opacity:1;stroke:#000000;stroke-width:10;stroke-linecap:round;stroke-linejoin:round;stroke-dasharray:none;stroke-opacity:1"
         d="m 196.75,710.75 h 22.5"
         id="path64" /><path
         id="rect63"
         style="fill:none;stroke:#000000;stroke-width:10;stroke-linecap:round;stroke-linejoin:round"
         d="M 317.65756,737.17395 H 163.96038 c -3.1339,0 -5.65685,-2.52296 -5.65685,-5.65685 v -41.64601 c 0,-3.1339 2.52295,-5.65686 5.65685,-5.65686 h 153.69718" /></g><g
       id="layer13"
       style="display:inline"><path
         style="display:inline;fill:none;fill-opacity:1;stroke:#000000;stroke-width:10;stroke-linecap:round;stroke-linejoin:round;stroke-dasharray:none;stroke-opacity:1"
         d="m 565.64527,781.87957 27.61732,0.53408 c 28.99138,6.01041 40.65864,24.04163 45.96194,37.47666 l 13.78858,55.50788 c 2.12132,16.61701 -3.77455,30.50498 -17.32412,37.83021 -20.50609,9.8995 -36.06243,1.41422 -44.90127,-8.13172 l -17.67768,-24.39519 h -55.15432 l -17.67767,26.16295 c -7,7.25 -22.15565,12.89224 -34.29468,9.8995 -22.75,-5 -29.43072,-25.33021 -27.18072,-39.58021 l 14.26346,-58.65738 c 4.25,-11 15.18152,-21.82494 15.18152,-21.82494"
         id="path57" /><path
         style="fill:none;fill-opacity:1;stroke:#000000;stroke-width:14;stroke-linecap:round;stroke-linejoin:round;stroke-dasharray:none;stroke-opacity:1"
         d="M 494.67297,817.41543 V 857.1902"
         id="path58" /><path
         style="fill:none;fill-opacity:1;stroke:#000000;stroke-width:14;stroke-linecap:round;stroke-linejoin:round;stroke-dasharray:none;stroke-opacity:1"
         d="M 514.38358,837.3912 H 474.6972"
         id="path59" /><circle
         style="fill:#000000;fill-opacity:1;stroke:#000000;stroke-width:10;stroke-linecap:round;stroke-linejoin:round;stroke-dasharray:none;stroke-opacity:1"
         id="circle61"
         cx="594.65533"
         cy="855.77142"
         r="4.8509517" /><circle
         style="fill:#000000;fill-opacity:1;stroke:#000000;stroke-width:10;stroke-linecap:round;stroke-linejoin:round;stroke-dasharray:none;stroke-opacity:1"
         id="circle62"
         cx="613.65533"
         cy="837.39642"
         r="4.8509517" /><circle
         style="display:inline;fill:#000000;fill-opacity:1;stroke:#000000;stroke-width:10;stroke-linecap:round;stroke-linejoin:round;stroke-dasharray:none;stroke-opacity:1"
         id="circle60"
         cx="594.65533"
         cy="818.64642"
         r="4.8509517" /><circle
         style="display:inline;fill:#000000;fill-opacity:1;stroke:#000000;stroke-width:10;stroke-linecap:round;stroke-linejoin:round;stroke-dasharray:none;stroke-opacity:1"
         id="path60"
         cx="575.78033"
         cy="837.39642"
         r="4.8509517" /></g><g
       id="layer12"
       style="display:inline"><path
         style="fill:none;fill-opacity:1;stroke:#000000;stroke-width:10;stroke-linecap:round;stroke-linejoin:round;stroke-dasharray:none;stroke-opacity:1"
         d="m 699.75,821.25 h 65"
         id="path55" /><path
         style="fill:none;fill-opacity:1;stroke:#000000;stroke-width:10;stroke-linecap:round;stroke-linejoin:round;stroke-dasharray:none;stroke-opacity:1"
         d="m 732.25,821.25 -0.0346,-26.83691"
         id="path56" /><path
         id="rect54"
         style="fill:none;stroke:#000000;stroke-width:10;stroke-linecap:round;stroke-linejoin:round"
         d="M 682.89601,692.3078 H 812.79944 V 794.41309 H 651.63141 l -4e-5,-63.20427" /></g><g
       id="layer11"
       style="display:inline"><path
         style="fill:none;fill-opacity:1;stroke:#000000;stroke-width:10;stroke-linecap:round;stroke-linejoin:round;stroke-dasharray:none;stroke-opacity:1"
         d="m 786.98105,611.03294 -74.41802,19.0484"
         id="path53" /><path
         style="display:inline;fill:none;fill-opacity:1;stroke:#000000;stroke-width:10;stroke-linecap:round;stroke-linejoin:round;stroke-dasharray:none;stroke-opacity:1"
         id="path50"
         d="m 892.47527,573.9894 a 61.518291,61.164738 0 0 1 -40.78483,52.19802 61.518291,61.164738 0 0 1 -64.70939,-15.15448" /><path
         style="fill:none;fill-opacity:1;stroke:#000000;stroke-width:10;stroke-linecap:round;stroke-linejoin:round;stroke-dasharray:none;stroke-opacity:1"
         d="m 881.3087,533.02561 -60.83628,16.64636 10.99676,40.32025 61.00609,-16.00282"
         id="path54" /><path
         style="display:inline;fill:none;fill-opacity:1;stroke:#000000;stroke-width:10;stroke-linecap:round;stroke-linejoin:round;stroke-dasharray:none;stroke-opacity:1"
         id="path51"
         d="m 769.96401,562.70226 a 61.518291,61.164738 0 0 1 45.31116,-53.26722 61.518291,61.164738 0 0 1 66.03353,23.59057" /><path
         style="fill:none;fill-opacity:1;stroke:#000000;stroke-width:10;stroke-linecap:round;stroke-linejoin:round;stroke-dasharray:none;stroke-opacity:1"
         d="m 769.96401,562.70226 -45.13616,11.61258"
         id="path52" /></g><g
       id="layer10"
       style="display:inline"><path
         style="fill:none;fill-opacity:1;stroke:#000000;stroke-width:10;stroke-linecap:round;stroke-linejoin:round;stroke-dasharray:none;stroke-opacity:1"
         d="M 770.74639,408.17739 V 462.125"
         id="path47" /><path
         style="fill:none;fill-opacity:1;stroke:#000000;stroke-width:10;stroke-linecap:round;stroke-linejoin:round;stroke-dasharray:none;stroke-opacity:1"
         d="M 748.47253,416.83945 V 462.125"
         id="path46" /><path
         style="fill:none;fill-opacity:1;stroke:#000000;stroke-width:10;stroke-linecap:round;stroke-linejoin:round;stroke-dasharray:none;stroke-opacity:1"
         d="M 726.55222,429.03704 V 462.125"
         id="path45" /><path
         style="fill:none;fill-opacity:1;stroke:#000000;stroke-width:10;stroke-linecap:round;stroke-linejoin:round;stroke-dasharray:none;stroke-opacity:1"
         d="m 860,462.125 c 9.75184,0 17.16596,-9.69327 17.16596,-17.84227 0,-9.23478 -7.95365,-18.60445 -17.67767,-18.78122 -4.95857,0.44027 -9.89949,2.29809 -9.89949,2.29809 0,-21.92031 -15.90769,-37.29988 -35.35534,-37.29988 -13.96536,0 -21.56676,6.89429 -21.56676,6.89429 L 792.375,462.125 Z"
         id="path49" /></g><g
       id="layer9"><ellipse
         style="fill:none;fill-opacity:1;stroke:#000000;stroke-width:10;stroke-linecap:round;stroke-linejoin:round;stroke-dasharray:none;stroke-opacity:1"
         id="path42"
         ry="15"
         rx="22.75"
         cy="345"
         cx="781.75" /><path
         id="ellipse43"
         style="fill:none;stroke:#000000;stroke-width:10;stroke-linecap:round;stroke-linejoin:round"
         d="m 682.60597,346.14331 c 5.61955,-1.21187 2.10898,-1.03647 8.39122,-1.03647 12.56448,0 22.75,6.71573 22.75,15 0,8.28427 -8.10703,13.16744 -15.81015,13.34422" /><path
         style="fill:none;fill-opacity:1;stroke:#000000;stroke-width:10;stroke-linecap:round;stroke-linejoin:round;stroke-dasharray:none;stroke-opacity:1"
         d="M 804.14186,269.25287 713.74719,284.5"
         id="path44" /><path
         style="fill:none;fill-opacity:1;stroke:#000000;stroke-width:10;stroke-linecap:round;stroke-linejoin:round;stroke-dasharray:none;stroke-opacity:1"
         d="M 713.74719,360.10684 V 254.25 L 804,239.25 804.5,345"
         id="path43" /></g><g
       id="layer8"
       style="display:inline"><path
         style="fill:none;stroke:#000000;stroke-width:10;stroke-linecap:round;stroke-linejoin:round;stroke-dasharray:none;stroke-opacity:1"
         d="M 557.25872,248.51863 V 169.25 l 30.12064,-30.12064 H 704.75 V 224.75 L 649.5,280 619.68238,279.9499"
         id="path40" /><path
         style="fill:none;stroke:#000000;stroke-width:10;stroke-linecap:round;stroke-linejoin:round;stroke-dasharray:none;stroke-opacity:1"
         d="M 621.875,266.38388 V 243.875 h -28.5 v -91.94171 l 99.05931,0.1875 v 66.60592 l -25.40465,25.40466 -22.27966,-0.1875 z"
         id="path41" /><rect
         style="display:inline;fill:#000000;fill-opacity:1;stroke:#000000;stroke-width:9.39924;stroke-linecap:round;stroke-linejoin:round;stroke-dasharray:none;stroke-opacity:1"
         id="rect41-2"
         width="10.600757"
         height="36.928375"
         x="663.2666"
         y="172.58762" /><rect
         style="display:inline;fill:#000000;fill-opacity:1;stroke:#000000;stroke-width:9.39924;stroke-linecap:round;stroke-linejoin:round;stroke-dasharray:none;stroke-opacity:1"
         id="rect41"
         width="10.600757"
         height="36.928375"
         x="629.25067"
         y="172.58722" /></g><g
       id="layer7"
       style="display:inline"><path
         style="fill:none;stroke:#000000;stroke-width:10;stroke-linejoin:round;stroke-dasharray:none;stroke-opacity:1"
         d="M 523.32532,238.4298 V 132.5 L 473.75,100.3125 h -11.13116 -11.13117"
         id="path36" /><path
         style="fill:none;stroke:#000000;stroke-width:10;stroke-linecap:round;stroke-dasharray:none;stroke-opacity:1"
         d="m 469,91.125 v 18.0625"
         id="path37" /><circle
         style="fill:none;stroke:#000000;stroke-width:10;stroke-linecap:round;stroke-dasharray:none;stroke-opacity:1"
         id="path38"
         cx="523.32532"
         cy="132.5"
         r="7.5496788" /><rect
         style="fill:none;stroke:#000000;stroke-width:10;stroke-linecap:round;stroke-linejoin:round;stroke-dasharray:none;stroke-opacity:1"
         id="rect38"
         width="17.987671"
         height="17.854452"
         x="433.5"
         y="91.658714" /><path
         style="fill:none;stroke:#000000;stroke-width:10;stroke-linecap:round;stroke-linejoin:round;stroke-dasharray:none;stroke-opacity:1"
         d="M 416.25,119.79324 V 81.75 h 17.25 v 37.97659"
         id="path39" /><path
         id="rect39"
         style="fill:none;stroke:#000000;stroke-width:10;stroke-linecap:round;stroke-linejoin:round"
         d="m 424.92695,116.1423 c 6.63504,0 12.62142,5.7062 11.9766,12.7279 l -2.5,27.22364 c -0.64482,7.02171 -2.71656,12.7279 -9.4766,12.7279 -6.63504,0 -8.28264,-5.71733 -9.0391,-12.7279 l -2.9375,-27.22364 c -0.75646,-7.01056 5.34156,-12.7279 11.9766,-12.7279 z" /></g><g
       id="layer6"
       style="display:inline"><path
         id="rect35"
         d="M 317.65756,246.4267 H 208.27829 c -24.81781,0 -44.93663,-20.11882 -44.93663,-44.93663 v -62.01326 c 0,-25.09118 20.34043,-45.431607 45.43161,-45.431606 h 127.06707 c 24.81782,-3e-6 44.93664,20.118816 44.93664,44.936636 v 67.54363 c -0.17678,8.13173 -6.89429,16.98549 -6.89429,16.98549"
         style="display:inline;fill:none;stroke:#000000;stroke-width:10;stroke-dasharray:none;stroke-opacity:1" /><path
         style="display:inline;fill:none;stroke:#000000;stroke-width:10;stroke-dasharray:none;stroke-opacity:1"
         d="m 302.37654,174.56698 -35.97407,26.42812 c -9.10399,4.94975 -15.55634,-0.15473 -15.55634,-6.62912 v -48.61359 c 0,-7.50726 9.73855,-11.10958 16.97056,-5.92202 l 34.64823,23.86485 c 2.74004,2.38649 3.44715,7.42462 -0.0884,10.87176 z"
         id="path7" /></g></g><style
     type="text/css"
     id="style1">
	.st0{fill:#FFFFFF;}
</style></svg>
